<svg width="16" height="16" viewBox="0 0 16 16" fill="none" xmlns="http://www.w3.org/2000/svg">
<path fill-rule="evenodd" clip-rule="evenodd" d="M8.37504 3.33325C8.37504 3.12615 8.20715 2.95825 8.00004 2.95825C7.79293 2.95825 7.62504 3.12615 7.62504 3.33325V7.62492H3.33337C3.12627 7.62492 2.95837 7.79281 2.95837 7.99992C2.95837 8.20703 3.12627 8.37492 3.33337 8.37492H7.62504V12.6666C7.62504 12.8737 7.79293 13.0416 8.00004 13.0416C8.20715 13.0416 8.37504 12.8737 8.37504 12.6666V8.37492H12.6667C12.8738 8.37492 13.0417 8.20703 13.0417 7.99992C13.0417 7.79281 12.8738 7.62492 12.6667 7.62492H8.37504V3.33325Z" fill="#121212"/>
</svg>
