<svg width="26" height="26" viewBox="0 0 26 26" fill="none" xmlns="http://www.w3.org/2000/svg">
<path fill-rule="evenodd" clip-rule="evenodd" d="M3 6.49961C3 6.26091 3.09482 6.032 3.2636 5.86321C3.43239 5.69443 3.66131 5.59961 3.9 5.59961H5.8344C6.33937 5.59962 6.82742 5.78159 7.20913 6.11218C7.59085 6.44276 7.84066 6.89982 7.9128 7.39961H19.5C19.6241 7.39957 19.7468 7.42518 19.8605 7.47485C19.9742 7.52451 20.0764 7.59715 20.1607 7.68821C20.245 7.77926 20.3096 7.88676 20.3503 8.00395C20.3911 8.12115 20.4072 8.2455 20.3976 8.36921L19.968 13.9528C19.9042 14.7818 19.5299 15.5561 18.9198 16.121C18.3098 16.6858 17.509 16.9996 16.6776 16.9996H9.0564L9.168 17.9356C9.17679 18.0084 9.21192 18.0754 9.26675 18.124C9.32157 18.1727 9.39231 18.1996 9.4656 18.1996H17.1C17.3387 18.1996 17.5676 18.2944 17.7364 18.4632C17.9052 18.632 18 18.8609 18 19.0996C18 19.3383 17.9052 19.5672 17.7364 19.736C17.5676 19.9048 17.3387 19.9996 17.1 19.9996H9.4656C8.9516 19.9997 8.45542 19.8113 8.07105 19.47C7.68667 19.1288 7.4408 18.6584 7.38 18.148L6.132 7.66361C6.12321 7.59085 6.08808 7.52382 6.03325 7.47519C5.97842 7.42655 5.90769 7.39967 5.8344 7.39961H3.9C3.66131 7.39961 3.43239 7.30479 3.2636 7.13601C3.09482 6.96722 3 6.7383 3 6.49961ZM8.8416 15.1996H16.6776C17.0554 15.1995 17.4193 15.0568 17.6965 14.8001C17.9737 14.5434 18.1438 14.1915 18.1728 13.8148L18.528 9.19961H8.1276L8.8416 15.1996Z" fill="black"/>
<path d="M12.0016 22.3992C12.0016 22.7175 11.8751 23.0227 11.6501 23.2477C11.425 23.4728 11.1198 23.5992 10.8016 23.5992C10.4833 23.5992 10.1781 23.4728 9.95303 23.2477C9.72799 23.0227 9.60156 22.7175 9.60156 22.3992C9.60156 22.081 9.72799 21.7757 9.95303 21.5507C10.1781 21.3256 10.4833 21.1992 10.8016 21.1992C11.1198 21.1992 11.425 21.3256 11.6501 21.5507C11.8751 21.7757 12.0016 22.081 12.0016 22.3992Z" fill="black"/>
<path d="M18.0016 22.3992C18.0016 22.7175 17.8751 23.0227 17.6501 23.2477C17.425 23.4728 17.1198 23.5992 16.8016 23.5992C16.4833 23.5992 16.1781 23.4728 15.953 23.2477C15.728 23.0227 15.6016 22.7175 15.6016 22.3992C15.6016 22.081 15.728 21.7757 15.953 21.5507C16.1781 21.3256 16.4833 21.1992 16.8016 21.1992C17.1198 21.1992 17.425 21.3256 17.6501 21.5507C17.8751 21.7757 18.0016 22.081 18.0016 22.3992Z" fill="black"/>
<circle cx="4.5" cy="4.5" r="4.5" transform="matrix(-1 0 0 1 24 2)" fill="black"/>
<rect x="14" width="12" height="12" rx="6" fill="black"/>
<path d="M17.453 3.968V3.4H18.325V9H17.437V5.16C17.357 5.208 17.237 5.232 17.085 5.232H16.173V4.472H17.045C17.333 4.472 17.453 4.264 17.453 3.968ZM19.1558 6.328V6.072C19.1558 4.448 20.0598 3.352 21.3638 3.352C22.6598 3.352 23.5638 4.448 23.5638 6.072V6.328C23.5638 8.016 22.6598 9.048 21.3638 9.048C20.0598 9.048 19.1558 8.016 19.1558 6.328ZM22.6758 6.296V6.104C22.6758 4.856 22.1478 4.128 21.3638 4.128C20.5718 4.128 20.0438 4.856 20.0438 6.104V6.296C20.0438 7.552 20.5718 8.272 21.3638 8.272C22.1478 8.272 22.6758 7.552 22.6758 6.296Z" fill="white"/>
</svg>
