<svg width="25" height="24" viewBox="0 0 25 24" fill="none" xmlns="http://www.w3.org/2000/svg">
<g clip-path="url(#clip0_0_785)">
<path d="M1.96436 1H5.96436L8.64436 14.39C8.7358 14.8504 8.98626 15.264 9.3519 15.5583C9.71754 15.8526 10.1751 16.009 10.6444 16H20.3644C20.8337 16.009 21.2912 15.8526 21.6568 15.5583C22.0224 15.264 22.2729 14.8504 22.3644 14.39L23.9644 6H6.96436M10.9644 21C10.9644 21.5523 10.5166 22 9.96436 22C9.41207 22 8.96436 21.5523 8.96436 21C8.96436 20.4477 9.41207 20 9.96436 20C10.5166 20 10.9644 20.4477 10.9644 21ZM21.9644 21C21.9644 21.5523 21.5166 22 20.9644 22C20.4121 22 19.9644 21.5523 19.9644 21C19.9644 20.4477 20.4121 20 20.9644 20C21.5166 20 21.9644 20.4477 21.9644 21Z" stroke="white" stroke-width="2" stroke-linecap="round" stroke-linejoin="round"/>
</g>
<defs>
<clipPath id="clip0_0_785">
<rect width="24" height="24" fill="white" transform="translate(0.964355)"/>
</clipPath>
</defs>
</svg>
